# xmcd CD database file
#
# Track frame offsets:
#	170
#	15605
#	32374
#	54488
#	67197
#	80051
#	87804
#	98783
#	118782
#	124621
#	133888
#	140736
#	151073
#
# Disc length: 2466 seconds
#
# Revision: 0
# Processed by: cddbd v1.5.2PL0 Copyright (c) Steve Scherf et al.
# Submitted via: CDex 1.51
#
DISCID=ad09a00d
DTITLE=mytha horns three - alphorn songbook
DYEAR=2004
DGENRE=Jazz
TTITLE0=Mytha Ranz
TTITLE1=Odd Licks
TTITLE2=Lioba
TTITLE3=Luegid vo Berge und Tal
TTITLE4=Hymna
TTITLE5=Moritz Jüüzli
TTITLE6=Us em Tal Groove
TTITLE7=Moosruef
TTITLE8=Thomas Jüüzli
TTITLE9=Alter Muothataler
TTITLE10=Ode an die Freude
TTITLE11=Tartaruga
TTITLE12=Habarigani
EXTD=YEAR: 2004
EXTT0=
EXTT1=
EXTT2=
EXTT3=
EXTT4=
EXTT5=
EXTT6=
EXTT7=
EXTT8=
EXTT9=
EXTT10=
EXTT11=
EXTT12=
PLAYORDER=
